<?xml version="1.0" encoding="UTF-8"?><svg id="_圖層_2" xmlns="http://www.w3.org/2000/svg" viewBox="0 0 38.58 108.56"><defs><style>.cls-1{fill:#fff;}</style></defs><g id="_圖層_1-2"><path class="cls-1" d="M33.67,3.11h1.47v1.77h-1.47v.41h-.37V.9h.51c.1-.27.21-.64.26-.9l.43.07c-.1.27-.22.58-.34.83h.91v1.62h-1.41v.58ZM33.67,1.25v.93h1.06v-.93h-1.06ZM33.67,3.46v1.07h1.1v-1.07h-1.1ZM37.1.69v.77h1.22v2.67c0,.19-.03.3-.17.36-.13.06-.34.07-.67.07-.01-.1-.07-.25-.11-.35.23,0,.43,0,.49,0,.07,0,.08-.02.08-.08V1.82h-.85v3.63h-.38V1.82h-.79v2.75h-.37V1.46h1.16v-.77h-1.39v-.37h3.18v.37h-1.41Z"/><path class="cls-1" d="M34.18,9.83c-.24-.2-.72-.48-1.1-.65l.22-.29c.37.16.86.41,1.1.61l-.22.34ZM33.27,12.32c.32-.46.8-1.25,1.14-1.93l.29.26c-.32.63-.74,1.39-1.09,1.94l-.34-.27ZM33.61,7.27c.4.17.89.43,1.15.63l-.23.33c-.25-.2-.73-.49-1.13-.67l.22-.29ZM38.06,12.66c-.06-.17-.16-.38-.28-.61-2.28.28-2.52.32-2.68.4-.01-.09-.08-.29-.13-.4.11-.02.23-.17.38-.38.14-.19.56-.85.87-1.53h-1.38v-.38h1.56v-1.11h-1.3v-.38h1.3v-1.06h.4v1.06h1.35v.38h-1.35v1.11h1.6v.38h-1.72c-.32.66-.71,1.31-1.1,1.83l1.99-.23c-.17-.28-.37-.56-.56-.8l.32-.15c.43.52.88,1.24,1.07,1.7l-.35.18Z"/><path class="cls-1" d="M38.28,14.68v5.2h-.4v-.28h-4.19v.28h-.38v-5.2h4.96ZM37.88,19.23v-4.19h-4.19v4.19h4.19ZM35.82,18.29c-.63.13-1.28.26-1.77.35l-.07-.31c.47-.08,1.14-.2,1.82-.33v.28ZM37.29,16.54c-.15.57-.38,1.07-.67,1.49.14.35.31.57.53.6.09.01.16-.24.19-.63.07.06.19.14.26.17-.08.64-.26.88-.56.77-.28-.05-.49-.28-.66-.62-.24.28-.52.52-.82.72-.05-.07-.17-.19-.24-.25.36-.21.67-.48.92-.81-.16-.49-.27-1.12-.34-1.81h-1.87v-.31h1.84c-.02-.22-.04-.44-.05-.67h.35c.01.22.02.45.04.67h1.34v.31h-1.31c.05.55.13,1.06.25,1.46.2-.34.37-.73.47-1.16l.32.07ZM35.6,16.58v1.16h-1.33v-1.16h1.33ZM35.3,16.83h-.74v.64h.74v-.64ZM37.2,15.77c-.14-.13-.42-.32-.66-.43l.19-.2c.23.1.52.26.66.41l-.19.22Z"/><path class="cls-1" d="M34.93,21.98c-.17.49-.39,1.07-.59,1.56.43.5.53.94.53,1.31,0,.31-.07.57-.22.68-.08.07-.19.1-.29.11-.12.01-.27.01-.4,0,0-.1-.04-.25-.11-.35.14.01.26.02.36,0,.07,0,.14-.02.19-.05.1-.07.13-.25.13-.43,0-.34-.11-.76-.55-1.24.18-.44.36-.96.49-1.37h-.83v4.84h-.35v-5.21h1.34l.05-.02.25.15ZM35.77,24.08c-.2.22-.43.41-.65.55-.05-.08-.14-.19-.22-.25.39-.23.76-.62,1.06-1.1-.14-.16-.35-.35-.56-.5-.14.2-.29.37-.44.52-.06-.05-.2-.16-.28-.21.41-.35.75-.89.94-1.48l.32.07c-.05.13-.1.26-.16.39h.73s.2.07.2.07c-.17.76-.5,1.39-.91,1.87h1.81v.34h-1.87v-.26ZM35.73,23.61c-.32.05-.61.1-.89.14l-.05-.29c.26-.02.56-.06.93-.11v.25ZM36.01,25.7c-.23.38-.58.82-.84,1.11-.08-.06-.23-.17-.32-.22.28-.27.59-.67.8-1.01l.36.12ZM36.9,25.26v1.8h-.37v-1.8h-1.35v-.34h3.06v.34h-1.34ZM35.65,22.36c-.03.06-.06.12-.1.17.19.14.4.31.55.47.1-.21.18-.42.24-.64h-.7ZM38.45,22.04c-.19.49-.5,1.02-.82,1.37.26.41.58.74.92.96-.08.06-.19.19-.24.28-.68-.47-1.24-1.4-1.54-2.4l.22-.06v-.26h1.16l.07-.02.23.14ZM37.09,22.22c.1.31.22.61.38.89.2-.25.39-.59.52-.89h-.89ZM37.67,25.54c.31.32.7.76.89,1.03l-.31.2c-.19-.26-.57-.72-.87-1.06l.29-.17Z"/><path class="cls-1" d="M37.91,29.78v4.46h-.41v-.41h-3.4v.44h-.4v-4.49h1.46c.13-.31.27-.71.35-1l.48.1c-.11.3-.26.63-.39.9h2.31ZM34.09,30.18v1.41h3.4v-1.41h-3.4ZM37.49,33.42v-1.44h-3.4v1.44h3.4Z"/><path class="cls-1" d="M34.06,38.6c-.22-.19-.66-.44-1-.61l.2-.29c.35.15.79.4,1.03.58l-.22.32ZM34.44,39.44c-.26.62-.62,1.36-.92,1.91l-.31-.28c.28-.46.68-1.24.97-1.91l.27.27ZM34.39,37.03c-.22-.2-.68-.48-1.03-.66l.21-.28c.35.16.8.43,1.04.63l-.22.31ZM38.19,36.34c-.73.25-1.83.44-2.81.58v1.19c0,.99-.1,2.4-.76,3.38-.06-.07-.23-.16-.32-.2.64-.94.71-2.25.71-3.18v-1.49c1.01-.14,2.2-.35,2.85-.6l.32.32ZM38.5,38.64c-.31.27-.67.56-.98.78.24.72.58,1.3,1.06,1.63-.09.07-.22.22-.29.33-.86-.67-1.27-2.01-1.48-3.6-.15.04-.31.06-.46.09v2.9l.94-.37c.02.1.05.25.08.32-1.18.5-1.33.59-1.43.68-.02-.09-.1-.26-.16-.34.1-.04.22-.14.22-.37v-3.11c.63-.11,1.37-.28,1.76-.47l.32.3c-.26.11-.59.2-.94.29.07.49.16.96.28,1.39.28-.22.6-.51.81-.73l.28.28Z"/><path class="cls-1" d="M34.79,45.34c-.1.83-.27,1.52-.51,2.07.58.59,1.42.74,2.46.74.22,0,1.52,0,1.8,0-.07.09-.13.26-.16.37h-1.65c-1.12,0-2-.16-2.63-.77-.21.39-.47.7-.76.92-.07-.08-.2-.22-.29-.27.32-.23.59-.55.8-.95-.22-.31-.4-.68-.55-1.16l.3-.12c.11.38.25.68.42.93.16-.41.29-.89.37-1.44h-.77c-.09.04-.22.12-.22.17-.02-.08-.11-.24-.16-.32.11-.02.25-.17.37-.35.11-.15.43-.66.67-1.2h-1.06v-.36h1.22l.13-.06.25.17c-.28.59-.59,1.15-.89,1.6h.65s.22.05.22.05ZM36.3,44.05h-1.13v-.32h1.13v-.52h.38v.52h1.34v.8h.43v.32h-.43v.82h-1.34v.49h1.49v.31h-1.49v.5h1.72v.32h-1.72v.63h-.38v-.63h-1.48v-.32h1.48v-.5h-1.23v-.31h1.23v-.49h-1.18v-.32h1.18v-.5h-1.54v-.32h1.54v-.48ZM36.68,44.05v.48h.98v-.48h-.98ZM37.66,44.85h-.98v.5h.98v-.5Z"/><path class="cls-1" d="M33.98,51.08c-.19.26-.4.5-.62.68-.05-.07-.19-.2-.28-.27.37-.28.72-.7.92-1.14l.36.1c-.05.1-.1.2-.16.3h1.57v.32h-1.79ZM35.99,54.1h2.47v.33h-2.47v1.43h-.38v-1.43h-2.45v-.33h2.45v-.37s-.09.04-.14.06c-.04-.07-.17-.2-.25-.25.41-.16.67-.34.82-.53-.21-.1-.42-.19-.61-.27l.16-.25c.19.07.39.16.59.25.04-.1.05-.2.05-.3v-.2h-.71v-.29h2.12v1.27c0,.11,0,.18.03.2.02.02.05.02.1.02h.17c.05,0,.1,0,.13-.02.03-.02.05-.05.07-.13.01-.07.02-.25.02-.47.07.07.19.12.28.15,0,.22-.03.47-.05.56-.04.08-.08.14-.16.18-.07.04-.17.05-.26.05h-.28c-.11,0-.23-.02-.31-.1-.08-.07-.11-.16-.11-.47v-.95h-.68v.21c0,.14-.02.29-.08.44.24.11.46.22.62.3l-.15.29c-.16-.09-.37-.2-.61-.32-.14.2-.36.39-.7.55h.34v.39ZM35.13,54.71c-.39.44-1.1.84-1.72,1.03-.05-.09-.17-.25-.26-.32.6-.15,1.29-.49,1.65-.85l.33.14ZM33.16,53.39c.26-.04.59-.07.94-.13v-.97h-.86v-.31h2.04v.31h-.82v.91c.28-.04.56-.08.84-.13l.02.32c-.75.13-1.54.24-2.1.34l-.06-.34ZM34.57,51.09c.18.17.41.41.52.55l-.28.22c-.11-.16-.33-.4-.52-.59l.27-.18ZM38.5,50.77v.32h-2.09c-.17.25-.37.48-.56.65-.06-.07-.21-.19-.31-.24.37-.28.67-.69.84-1.14l.37.1c-.04.11-.08.2-.14.31h1.89ZM36.69,54.54c.56.24,1.27.61,1.64.86l-.26.3c-.36-.27-1.07-.65-1.63-.91l.25-.26ZM37.41,51.84c-.11-.16-.32-.39-.5-.56l.27-.18c.18.15.41.38.52.52l-.28.22Z"/><path class="cls-1" d="M33.13,61.88h5.32v.26h-3.12c-.32.22-.64.41-.95.56l2.69-.11c-.17-.1-.34-.18-.51-.25l.27-.18c.5.2,1.1.56,1.42.82l-.27.2c-.12-.11-.28-.22-.47-.34-3.35.16-3.67.18-3.87.25-.02-.07-.08-.23-.11-.32.11,0,.25-.06.41-.13.14-.06.49-.25.85-.49h-1.64v-.26ZM34.22,59.58c-.1.34-.34.53-.88.64-.02-.07-.1-.17-.17-.21.46-.08.67-.2.76-.43h-.68v-.25h1.11v-.26h-.82v-.25h.82v-.2h.35v.2h.81v.25h-.81v.26h1.08v.25h-.79v.13c0,.13,0,.16.09.16h.37c.07,0,.19,0,.25-.02.01.07.02.16.02.23-.06.02-.17.02-.27.02h-.43c-.26,0-.32-.11-.32-.4v-.13h-.5ZM34.6,58.32h-1.41v-.31h1.41v-.41h.38v.41h.73v.31h-.73v.29h-.38v-.29ZM38.07,60.78s.1,0,.11-.02c.02-.02.05-.06.06-.13.01-.08.02-.25.02-.47.07.05.16.11.25.13,0,.21-.02.46-.05.55-.02.08-.07.14-.13.17-.06.04-.16.05-.23.05h-.24c-.1,0-.21-.02-.28-.09-.08-.06-.1-.14-.1-.46v-1.13h-.53c0,.2-.03.41-.1.62.19.12.36.25.48.37l-.21.25c-.1-.1-.23-.2-.39-.32-.16.31-.41.62-.84.88-.04-.06-.14-.14-.23-.21-.88.07-1.78.14-2.42.18l-.02-.28c.31-.02.7-.04,1.13-.07v-.31h-.89v-.25h.89v-.31h.35v.31h.9v.25h-.9v.29c.35-.02.71-.05,1.07-.07v.16c.34-.23.55-.5.68-.76-.19-.11-.38-.22-.57-.3l.2-.23c.15.07.32.15.48.23.04-.16.06-.3.07-.44h-.7v-.31h.7v-.41h.32v.41h.86v1.47c0,.11,0,.19.03.2.02.02.04.02.08.02h.14ZM37.74,61.29v.26h-3.86v-.26h3.86ZM36.59,58.32h-.68v-.31h.68v-.41h.39v.41h1.43v.31h-1.43v.29h-.39v-.29Z"/><path class="cls-1" d="M34.62,66.11c-.14.31-.33.62-.53.91v3.26h-.37v-2.78c-.18.21-.37.41-.55.57-.04-.08-.17-.26-.24-.34.52-.42,1.03-1.07,1.33-1.73l.37.12ZM34.46,64.94c-.28.49-.76,1.03-1.2,1.38-.05-.08-.16-.22-.23-.29.41-.31.85-.8,1.06-1.21l.37.13ZM35.17,67.04c-.01,1.16-.08,1.94-.55,2.41-.04-.07-.15-.19-.22-.24.4-.41.44-1.11.46-2.17h.31ZM35.87,66.63v3.62h-.35v-3.62h-.9v-.37h.9v-1.4h.35v1.4h1.01v.37h-1.01ZM36.65,66.1c-.1-.22-.33-.56-.55-.81l.25-.14c.22.24.46.57.56.79l-.27.17ZM36.85,68.95c.06,0,.14,0,.2-.02,0,.08.02.22.03.29-.05.02-.14.02-.23.02h-.23c-.32,0-.38-.12-.38-.5v-1.71h.31v1.72c0,.16,0,.19.06.19h.24ZM38.52,67.04h-.55v2.68c0,.23-.05.35-.2.41-.17.07-.44.07-.86.07-.01-.11-.06-.27-.11-.39.32.01.61.01.68,0,.09,0,.11-.02.11-.1v-2.68h-.71v-.36h1.65v.36ZM38.44,65.65h-1.42v-.36h1.42v.36Z"/><path class="cls-1" d="M34.11,74.69c-.22-.2-.67-.48-1.03-.66l.23-.28c.35.16.81.43,1.04.62l-.25.32ZM33.2,77.08c.28-.44.68-1.2.98-1.85l.31.23c-.27.61-.63,1.32-.93,1.86l-.36-.25ZM33.63,72.16c.34.2.76.5.96.71l-.27.28c-.2-.22-.61-.53-.95-.74l.26-.25ZM38.23,75.57c-.28.25-.66.49-.98.67.34.38.76.68,1.27.84-.09.08-.2.24-.26.34-1-.38-1.67-1.2-2.02-2.29h-.92v1.79l1.14-.37c0,.11.04.27.05.36-1.28.43-1.46.51-1.58.6-.04-.09-.14-.25-.21-.31.08-.07.2-.21.2-.47v-4.06h1.44c-.07-.19-.17-.43-.28-.61l.36-.1c.14.22.26.5.34.71h1.18v2.46h-1.34c.11.31.25.59.44.85.31-.19.69-.46.92-.67l.26.26ZM35.32,73.03v.69h2.25v-.69h-2.25ZM35.32,74.78h2.25v-.71h-2.25v.71Z"/><path class="cls-1" d="M33.91,81.82c-.19-.19-.57-.46-.89-.64l.24-.26c.31.17.7.43.89.61l-.25.29ZM33.16,84.41c.23-.48.56-1.3.78-1.99l.32.2c-.2.65-.5,1.43-.74,1.99l-.35-.2ZM34.1,80.24c-.19-.19-.56-.5-.87-.69l.26-.25c.31.19.68.46.88.67l-.26.27ZM35.66,83.56v1.11h-.37v-1.11h-.95v-.36h.95v-.53h-.71v-1.91h.71v-.52h-.84v-.35h.84v-.68h.37v.68h.86v.35h-.86v.52h.71v1.91h-.71v.53h.88v.36h-.88ZM34.92,81.57h1.11v-.5h-1.11v.5ZM34.92,82.37h1.11v-.52h-1.11v.52ZM38.34,84.16c0,.23-.05.35-.19.42-.16.07-.4.08-.79.08-.02-.11-.07-.28-.11-.39.29.01.55,0,.62,0,.08,0,.11-.03.11-.12v-1.53h-.86c-.06.72-.22,1.49-.64,2.05-.07-.07-.22-.17-.3-.22.56-.74.61-1.81.61-2.65v-2.37h1.55v4.73ZM37.98,82.26v-1.06h-.83v.61c0,.14,0,.29,0,.45h.83ZM37.16,79.79v1.04h.83v-1.04h-.83Z"/><path class="cls-1" d="M35.18,88.47c.47-.2.73-.49.76-.92-.04.01-.08.01-.11.01-.23,0-.43-.13-.43-.41s.2-.41.43-.41c.32,0,.49.26.49.67,0,.64-.4,1.12-1.01,1.34l-.13-.29Z"/><path class="cls-1" d="M23.55,3.1c-.07-.16-.2-.46-.34-.71v3.08h-.37v-2.81c-.17.61-.38,1.19-.61,1.56-.05-.11-.14-.28-.22-.37.33-.52.67-1.52.82-2.34h-.68v-.36h.68V.01h.37v1.13h.59v.36h-.59v.34c.14.21.5.79.58.95l-.25.31ZM27.53,4.91v.36h-3.98v-.36h3.98ZM24.72,1.52c.11-.26.23-.64.34-.97h-1.24V.2h3.59v.35h-1.98c-.07.22-.15.45-.22.65h.72v.18c-.04,2.19-.07,2.87-.2,3.08-.09.12-.19.16-.34.18-.13.01-.35.01-.55,0,0-.1-.05-.25-.1-.34.22.02.41.02.51.02.08,0,.12-.01.17-.08.09-.14.13-.81.16-2.73h-.85ZM25.02,3.9h-.82v.32h-.28V1.76h1.1v2.13ZM24.73,3.59v-1.51h-.53v1.51h.53ZM27.43,1.62c-.08.59-.22,1.1-.4,1.53.21.32.38.63.49.89l-.27.2c-.09-.21-.23-.47-.38-.74-.2.38-.45.68-.72.91-.05-.08-.17-.22-.25-.27.3-.23.55-.56.76-.98-.18-.28-.37-.55-.57-.79l.26-.18c.16.19.31.4.46.62.11-.28.19-.59.25-.94h-.92v-.31h1.1s.2.06.2.06Z"/><path class="cls-1" d="M22.97,7.94c-.19.28-.4.52-.62.71-.06-.06-.2-.2-.28-.26.38-.31.73-.76.93-1.22l.36.1c-.05.12-.11.23-.17.35h1.58v.33s-1.2,0-1.2,0c.18.16.4.37.51.5l-.26.23c-.11-.15-.34-.39-.53-.56l.23-.17h-.55ZM22.79,10.23v2.43h-.37v-3.95h2.07v1.52h-1.7ZM22.79,8.99v.35h1.34v-.35h-1.34ZM24.12,9.96v-.36h-1.34v.36h1.34ZM25.9,12.18h-1.83v.22h-.37v-1.84h2.2v1.62ZM24.07,10.82v.41h1.48v-.41h-1.48ZM25.54,11.91v-.42h-1.48v.42h1.48ZM27.5,7.61v.32h-2c-.16.26-.35.5-.55.68-.07-.06-.22-.19-.31-.24.35-.29.65-.74.81-1.22l.37.09c-.04.13-.09.24-.14.36h1.83ZM27.16,12.19c0,.23-.05.35-.22.41-.17.07-.46.07-.91.07-.01-.1-.07-.26-.13-.36.35.01.67.01.76,0,.1,0,.13-.03.13-.12v-1.96h-1.77v-1.52h2.14v3.47ZM25.39,8.99v.35h1.4v-.35h-1.4ZM26.79,9.96v-.36h-1.4v.36h1.4ZM26.45,8.69c-.11-.15-.36-.38-.56-.55l.26-.21c.2.15.46.38.58.52l-.27.24Z"/><path class="cls-1" d="M27.21,15.72s0,.16-.01.22c-.14,2.49-.26,3.37-.53,3.66-.13.16-.27.21-.49.23-.2.02-.58,0-.95-.02-.01-.11-.06-.29-.14-.4.41.04.8.04.95.04.13,0,.2-.02.28-.09.22-.21.35-1.07.47-3.23h-2.1c-.08,1.25-.49,2.69-2.23,3.77-.07-.1-.21-.25-.31-.31,1.66-1,2.04-2.32,2.12-3.46h-1.95v-.4h1.97c0-.11,0-.2,0-.31v-1h.41v1c0,.1,0,.2,0,.31h2.51Z"/><path class="cls-1" d="M23.62,24.54c-.09.53-.22.98-.4,1.35.41.64,1.17.73,2.29.73.62,0,1.48-.03,2.07-.08-.06.09-.11.27-.14.38-.55.04-1.29.05-1.94.05-1.21,0-1.97-.12-2.44-.78-.22.38-.5.67-.81.89-.05-.09-.19-.23-.26-.28.59-.37,1.03-1.04,1.22-2.01h-.68c-.16,0-.31.04-.35.08-.02-.1-.11-.29-.16-.37.09-.02.19-.06.29-.17.14-.14.53-.65.79-1.02h-1v-.33h1.25l.07-.03.27.13c-.26.35-.73.98-1.07,1.39h.8s.2.07.2.07ZM23.07,22.75c-.16-.25-.49-.67-.74-.96l.29-.17c.28.29.6.67.76.92l-.31.22ZM25.12,23.25c.06-.16.11-.34.14-.51h-1.6v-.34h1.03c-.07-.19-.24-.45-.4-.65l.31-.13c.17.2.36.47.43.66l-.24.12h1.09c.17-.23.37-.57.47-.8l.38.11c-.14.23-.31.49-.45.68h1.15v.34h-1.74c-.07.18-.14.35-.21.51h1.44v2.79h-2.78v-2.79h.96ZM26.55,23.56h-2v.53h2v-.53ZM26.55,24.38h-2v.53h2v-.53ZM26.55,25.2h-2v.53h2v-.53Z"/><path class="cls-1" d="M24.15,30.12c-.18.4-.4.77-.65,1.12h1.37v-.82h.4v.82h1.81v1.94c0,.23-.05.34-.23.4-.18.07-.5.07-1.01.07-.02-.11-.08-.25-.14-.36.4.01.75,0,.85,0,.1,0,.13-.03.13-.12v-1.55h-1.4v2.65h-.4v-2.65h-1.33v2.09h-.4v-2.01c-.26.3-.56.58-.89.81-.06-.1-.16-.25-.24-.33.73-.5,1.3-1.25,1.7-2.06h-1.53v-.38h1.71c.14-.31.24-.62.33-.94l.41.1c-.09.28-.19.56-.31.84h3.09v.38h-3.26Z"/><path class="cls-1" d="M26.91,36.98v4.46h-.41v-.41h-3.4v.44h-.4v-4.49h1.46c.13-.31.27-.71.35-1l.48.1c-.11.3-.26.63-.39.9h2.31ZM23.09,37.38v1.41h3.4v-1.41h-3.4ZM26.49,40.62v-1.44h-3.4v1.44h3.4Z"/><path class="cls-1" d="M23.07,44.26c-.23.29-.49.55-.74.76-.05-.07-.17-.23-.26-.31.51-.37.99-.94,1.28-1.54l.35.11c-.11.21-.23.42-.37.62h3.9v.36h-4.17ZM27.43,46.74v.36h-5.28v-.36h.94v-1.07h-.73v-.36h.73v-.68h.37v.68h.66v-.68h.34v.68h.74v-.68h.35v.68h.7v-.68h.37v.68h.7v.36h-.7v1.07h.82ZM22.28,48.51c.21-.29.44-.75.59-1.14l.37.1c-.15.38-.38.88-.6,1.2l-.37-.16ZM23.46,46.74h.66v-1.07h-.66v1.07ZM24.24,47.5c.08.35.14.8.15,1.06l-.39.05c0-.27-.05-.74-.13-1.09l.37-.03ZM24.46,45.68v1.07h.74v-1.07h-.74ZM25.48,47.45c.17.34.33.79.39,1.07l-.38.08c-.06-.28-.22-.74-.37-1.09l.37-.07ZM25.54,45.68v1.07h.7v-1.07h-.7ZM26.71,47.35c.23.36.5.84.62,1.13l-.38.17c-.11-.29-.38-.79-.6-1.16l.36-.14Z"/><path class="cls-1" d="M23.55,53.5c-.07-.16-.2-.46-.34-.71v3.08h-.37v-2.81c-.17.61-.38,1.19-.61,1.56-.05-.11-.14-.28-.22-.37.33-.52.67-1.52.82-2.34h-.68v-.36h.68v-1.13h.37v1.13h.59v.36h-.59v.34c.14.21.5.79.58.95l-.25.31ZM27.53,55.31v.36h-3.98v-.36h3.98ZM24.72,51.92c.11-.26.23-.64.34-.97h-1.24v-.35h3.59v.35h-1.98c-.07.22-.15.45-.22.65h.72v.18c-.04,2.19-.07,2.87-.2,3.08-.09.12-.19.16-.34.18-.13.01-.35.01-.55,0,0-.1-.05-.25-.1-.34.22.02.41.02.51.02.08,0,.12-.01.17-.08.09-.14.13-.81.16-2.73h-.85ZM25.02,54.3h-.82v.32h-.28v-2.45h1.1v2.13ZM24.73,53.99v-1.51h-.53v1.51h.53ZM27.43,52.02c-.08.59-.22,1.1-.4,1.53.21.32.38.63.49.89l-.27.2c-.09-.21-.23-.47-.38-.74-.2.38-.45.68-.72.91-.05-.08-.17-.22-.25-.27.3-.23.55-.56.76-.98-.18-.28-.37-.55-.57-.79l.26-.18c.16.19.31.4.46.62.11-.28.19-.59.25-.94h-.92v-.31h1.1s.2.06.2.06Z"/><path class="cls-1" d="M23.7,57.67c-.1.29-.21.63-.32.89h1.01v3.87h-1.68v.48h-.37v-4.35h.67c.1-.28.21-.69.26-.97l.43.08ZM24.03,58.92h-1.31v1.31h1.31v-1.31ZM24.03,62.07v-1.49h-1.31v1.49h1.31ZM27.33,58.76c-.1,2.75-.18,3.67-.42,3.96-.12.16-.26.21-.46.23-.2.02-.55,0-.88-.01-.01-.12-.06-.28-.13-.39.39.04.75.04.88.04.12,0,.19-.01.25-.09.2-.21.29-1.13.37-3.57h-1.57c-.17.41-.36.78-.56,1.07-.07-.06-.25-.17-.34-.22.41-.53.73-1.36.92-2.19l.38.08c-.08.3-.16.6-.26.89h1.82v.21ZM26.05,61.46c-.19-.37-.59-.96-.93-1.39l.31-.18c.35.43.77,1,.96,1.36l-.34.21Z"/><path class="cls-1" d="M24.54,69.81c0,.22-.04.31-.19.37-.16.06-.41.07-.79.07-.02-.1-.07-.24-.13-.34.29.01.55,0,.63,0,.08,0,.1-.02.1-.1v-.98c-.42.24-.84.48-1.19.67l-.16-.34c.34-.14.85-.4,1.34-.65v-1.24h-1.3v1.15c0,.58-.07,1.34-.48,1.86-.05-.08-.19-.22-.28-.28.35-.46.38-1.08.38-1.59v-1.49h2.05v2.9ZM24.14,65.23c.31.41.65.97.8,1.32l-.34.16c-.05-.12-.12-.26-.2-.41-1.64.14-1.85.16-1.98.22-.02-.08-.08-.28-.13-.38.09-.02.19-.11.31-.24.11-.12.52-.62.77-1.1l.4.13c-.26.41-.56.82-.86,1.14l1.31-.1c-.13-.21-.26-.43-.4-.61l.32-.13ZM23.14,67.64c.34.19.77.45.99.62l-.21.23c-.22-.18-.65-.46-.98-.65l.2-.2ZM25.74,67.38c-.49,0-.64-.17-.64-.65v-1.92h.39v.85h1.64v.36h-1.64v.73c0,.22.05.29.25.29h1.14c.14,0,.38-.01.49-.04,0,.11.02.26.04.35-.09.02-.31.04-.52.04h-1.16ZM26.88,69.85c.26,0,.31-.11.33-.77.1.07.25.13.36.15-.05.78-.17.98-.65.98h-1.1c-.56,0-.71-.12-.71-.58v-2.04h.39v.73h1.71v.36h-1.71v.94c0,.2.06.23.35.23h1.03Z"/><path class="cls-1" d="M27.5,77v.31h-5.4v-.31h2.5v-.37h-2.01v-.29h2.01v-.35h-1.83v-1.49h4.12v1.49h-1.91v.35h2.05v.29h-2.05v.37h2.52ZM27.46,74.21h-5.33v-.31h5.33v.31ZM26.71,73.64h-3.83v-1.45h3.83v1.45ZM23.14,75.12h1.45v-.35h-1.45v.35ZM24.6,75.73v-.37h-1.45v.37h1.45ZM26.32,72.44h-3.06v.35h3.06v-.35ZM26.32,73.04h-3.06v.35h3.06v-.35ZM26.5,74.76h-1.52v.35h1.52v-.35ZM26.5,75.36h-1.52v.37h1.52v-.37Z"/><path class="cls-1" d="M27.22,80.63c-.21.56-.51,1.08-.86,1.52.21,1.28.52,2.12.77,2.12.1,0,.16-.33.19-1.05.08.08.21.16.31.2-.06.94-.19,1.22-.55,1.22-.44,0-.79-.87-1.03-2.13-.17.18-.37.35-.56.5-.06-.07-.2-.2-.28-.26.28-.19.53-.41.76-.68-.08-.58-.15-1.22-.19-1.89h-2.87v.94c0,.99-.08,2.5-.58,3.56-.07-.07-.23-.19-.31-.22.47-1.01.52-2.39.52-3.34v-1.28h3.23c0-.21-.01-.43-.02-.64h.38c0,.22,0,.43.01.64h1.3v.34h-1.3c.03.53.08,1.03.14,1.49.24-.34.44-.73.59-1.12l.34.09ZM22.78,84.3c.16-.3.28-.8.35-1.16l.28.09c-.07.37-.19.89-.35,1.21l-.28-.14ZM25.44,80.93h-2.24v-.3h2.24v.3ZM25.32,82.67h-1.97v-1.31h1.97v1.31ZM24.84,84.29c.17,0,.2-.08.22-.7.07.06.2.11.3.13-.04.7-.13.86-.49.86h-.76c-.41,0-.52-.09-.52-.45v-1.08h.34v1.08c0,.13.03.15.22.15h.68ZM24.99,81.65h-1.31v.73h1.31v-.73ZM24.61,83.72c-.11-.23-.34-.61-.54-.89l.26-.11c.2.28.44.65.55.86l-.28.14ZM25.59,83.1c.2.38.44.89.56,1.18l-.31.13c-.11-.3-.34-.83-.53-1.21l.29-.1ZM26.96,79.83c-.15-.13-.45-.35-.68-.5l.25-.18c.23.14.53.34.68.47l-.25.2Z"/><path class="cls-1" d="M24.43,90.56c0-.23.17-.38.36-.38s.36.16.36.38-.17.37-.36.37-.36-.14-.36-.37ZM24.51,87.1v-.68s.59,0,.59,0v.68s-.13,2.37-.13,2.37h-.35l-.11-2.37Z"/><path class="cls-1" d="M12.61,1.45v-.91h3.98v2.1h-.97v-1.19h-3ZM12.79.72v.54h3v1.19h.6V.72h-3.6Z"/><path class="cls-1" d="M16.17,5.27v2.78h-.41v-.35h-1.78v1.95h-.41v-1.95h-1.77v.38h-.4v-2.81h2.17v-1.07h.41v1.07h2.19ZM13.57,7.31v-1.64h-1.77v1.64h1.77ZM15.77,7.31v-1.64h-1.78v1.64h1.78Z"/><path class="cls-1" d="M15.85,16.48c.24,0,.29-.15.31-1.02.09.08.26.14.37.17-.05.97-.16,1.22-.65,1.22h-.89c-.51,0-.65-.13-.65-.61v-2.17h-1.15c-.11,1.33-.41,2.3-1.9,2.79-.04-.1-.16-.26-.25-.34,1.4-.43,1.64-1.28,1.73-2.45h-1.62v-.38h2.44v-2.3h.4v2.3h2.48v.38h-1.72v2.17c0,.2.05.25.29.25h.82ZM12.38,13.32c-.11-.39-.41-1.02-.73-1.49l.36-.13c.31.46.63,1.07.75,1.48l-.38.15ZM16,11.78c-.26.52-.58,1.14-.85,1.53l-.33-.14c.26-.4.59-1.07.77-1.54l.41.15Z"/><path class="cls-1" d="M12.55,21.7c-.07-.16-.2-.46-.34-.71v3.08h-.37v-2.81c-.17.61-.38,1.19-.61,1.56-.05-.11-.14-.28-.22-.37.33-.52.67-1.52.82-2.34h-.68v-.36h.68v-1.13h.37v1.13h.59v.36h-.59v.34c.14.21.5.79.58.95l-.25.31ZM16.53,23.51v.36h-3.98v-.36h3.98ZM13.72,20.12c.11-.26.23-.64.34-.97h-1.24v-.35h3.59v.35h-1.98c-.07.22-.15.45-.22.65h.72v.18c-.04,2.19-.07,2.87-.2,3.08-.09.12-.19.16-.34.18-.13.01-.35.01-.55,0,0-.1-.05-.25-.1-.34.22.02.41.02.51.02.08,0,.12-.01.17-.08.09-.14.13-.81.16-2.73h-.85ZM14.02,22.5h-.82v.32h-.28v-2.45h1.1v2.13ZM13.73,22.19v-1.51h-.53v1.51h.53ZM16.43,20.23c-.08.59-.22,1.1-.4,1.53.21.32.38.63.49.89l-.27.2c-.09-.21-.23-.47-.38-.74-.2.38-.45.68-.72.91-.05-.08-.17-.22-.25-.27.3-.23.55-.56.76-.98-.18-.28-.37-.55-.57-.79l.26-.18c.16.19.31.4.46.62.11-.28.19-.59.25-.94h-.92v-.31h1.1s.2.06.2.06Z"/><path class="cls-1" d="M14.98,26.82v.91h-3.98v-2.1h.97v1.19h3ZM14.8,27.54v-.54h-3v-1.19h-.6v1.73h3.6Z"/><path class="cls-1" d="M12.79,30.13c-.17.45-.38.89-.62,1.3v4.02h-.38v-3.43c-.2.29-.43.56-.64.79-.04-.1-.15-.31-.23-.39.6-.58,1.16-1.48,1.51-2.4l.37.11ZM15.25,32.68c.16,1.35.42,2.28.77,2.3.11,0,.2-.32.24-.89.07.07.22.16.29.19-.11.89-.3,1.16-.52,1.16-.63-.02-.97-1.13-1.14-2.75h-1.43v1.75l1.12-.29c0,.1,0,.25.01.33-1.33.38-1.5.44-1.61.52-.02-.1-.1-.25-.16-.34.11-.05.26-.14.26-.38v-3.66c1-.16,2.16-.4,2.79-.65l.33.3c-.31.11-.68.21-1.09.31.02.61.05,1.2.11,1.73h1.21v.37h-1.17ZM14.84,32.31c-.05-.52-.08-1.07-.1-1.65-.43.08-.87.17-1.3.23v1.41h1.4ZM13.61,34.98h1.6v.34h-1.6v-.34Z"/><path class="cls-1" d="M12.93,37.58c-.18.49-.4,1.07-.6,1.55.44.5.54.94.54,1.31,0,.31-.06.57-.22.68-.08.06-.19.1-.29.11-.12.02-.28.02-.4,0,0-.1-.04-.25-.1-.35.14.01.26.02.36,0,.07,0,.14-.02.19-.05.09-.07.13-.24.13-.43,0-.34-.11-.75-.55-1.24.18-.44.37-.97.49-1.37h-.83v4.84h-.35v-5.21h1.33l.06-.02.25.16ZM12.74,42.44c.21-.26.39-.68.49-.99l.31.12c-.11.32-.27.75-.48,1.02l-.32-.15ZM15.83,40.55h-2.85v-.26h2.85v-.34h-2.63v-.26h2.99v.6h.3v.26h-.3v.62h-1.7c.24.19.55.45.7.62l-.24.21c-.17-.18-.5-.48-.73-.68l.2-.15h-1.24v-.26h2.66v-.35ZM16.47,39.39h-3.38v-.28h1.44v-.37h-1.25v-.28h2.06c.17-.22.34-.5.46-.76l.32.09c-.11.22-.25.47-.38.67h.5v.28h-1.33v.37h1.56v.28ZM16.4,37.48c-.81.2-2.11.31-3.18.35,0-.08-.05-.2-.08-.28,1.05-.05,2.33-.16,3.02-.33l.25.26ZM13.67,38.44c-.07-.13-.19-.32-.29-.47l.3-.11c.1.13.23.34.29.45l-.31.14ZM15.19,42.31c.17,0,.2-.04.22-.36.07.05.22.1.32.12-.04.44-.15.55-.49.55h-.92c-.48,0-.6-.09-.6-.46v-.74h.35v.74c0,.12.04.14.28.14h.84ZM14.66,38.45c-.06-.15-.18-.4-.28-.58l.3-.11c.1.18.23.41.29.55l-.31.14ZM15.91,41.43c.23.3.49.7.61.94l-.32.15c-.12-.26-.38-.67-.59-.98l.31-.11Z"/><path class="cls-1" d="M11.04,49.71c.19-.26.37-.69.45-1.01l.3.12c-.1.34-.25.78-.44,1.06l-.31-.16ZM13.97,48.6c-.02-.08-.06-.17-.1-.28-.95.11-1.1.13-1.19.17-.02-.07-.07-.24-.1-.32.08-.02.18-.1.31-.23.06-.06.22-.25.38-.47-.41.04-.52.07-.58.1-.02-.07-.07-.23-.1-.31.06-.01.12-.06.17-.14.07-.07.27-.38.38-.69h-1.39l.23.07c-.11.28-.27.53-.42.74l.43-.04c.07-.11.14-.22.2-.34l.31.13c-.27.43-.58.84-.88,1.16l.57-.05c-.04-.12-.08-.23-.13-.33l.23-.08c.13.25.24.58.29.8l-.25.08c-.01-.06-.03-.13-.05-.21-.84.1-.99.12-1.07.16-.02-.07-.07-.23-.11-.31.1-.02.19-.11.31-.23.07-.07.23-.25.4-.48-.42.04-.52.07-.58.1-.01-.07-.06-.23-.1-.31.07-.01.11-.07.17-.15.07-.08.26-.39.37-.7h-.3v-1.74h2.49v1.74h-.67l.29.1c-.12.25-.28.5-.43.69l.43-.03c.07-.11.14-.22.2-.34l.32.13c-.28.42-.59.82-.89,1.13l.64-.06c-.05-.11-.09-.2-.14-.29l.25-.11c.16.26.32.6.39.83l-.27.11ZM11.7,45.43h1.79v-.46h-1.79v.46ZM11.7,46.16h1.79v-.46h-1.79v.46ZM12.33,48.76c.07.31.13.7.14.97l-.32.05c-.01-.26-.06-.66-.13-.97l.3-.04ZM12.93,48.68c.12.27.25.64.28.87l-.29.08c-.04-.24-.16-.6-.27-.88l.28-.07ZM13.6,48.52c.17.25.35.58.43.79l-.28.13c-.08-.22-.25-.55-.41-.8l.27-.11ZM15.11,49.1c-.27.29-.7.6-1.06.79-.05-.07-.18-.19-.26-.25.37-.17.78-.47.98-.72l.34.19ZM14.96,45.64c.03-.18.05-.4.08-.59h-.95v-.35h2.36v.35h-1.01c-.05.2-.08.41-.13.59h1.03v3.11h-2.07v-3.11h.7ZM16,45.95h-1.4v.61h1.4v-.61ZM16,46.87h-1.4v.62h1.4v-.62ZM16,47.8h-1.4v.62h1.4v-.62ZM15.8,48.92c.28.22.62.53.79.76l-.29.2c-.16-.22-.5-.55-.77-.78l.28-.18Z"/><path class="cls-1" d="M16.29,52.1v1.1h-.39v-.75h-4.22v.75h-.38v-1.1h2.31c-.08-.15-.17-.32-.25-.45l.4-.1c.12.17.24.39.32.55h2.19ZM11.72,54.93h4.2v2.12h-.39v-.19h-3.43v.22h-.38v-2.15ZM15.53,53.14h-3.46v-.29h3.46v.29ZM12.1,55.24v.5h1.48v-.5h-1.48ZM12.1,56.55h1.48v-.52h-1.48v.52ZM12.12,54.56v-1.07h3.34v1.07h-3.34ZM12.49,54.27h2.58v-.49h-2.58v.49ZM15.53,55.24h-1.56v.5h1.56v-.5ZM15.53,56.55v-.52h-1.56v.52h1.56Z"/><path class="cls-1" d="M13.18,60.87c.47-.2.73-.49.76-.92-.04.01-.08.01-.11.01-.23,0-.43-.13-.43-.41s.2-.41.43-.41c.32,0,.49.26.49.67,0,.64-.4,1.12-1.01,1.34l-.13-.29Z"/><path class="cls-1" d="M12.79,65.14c-.1.83-.27,1.52-.51,2.07.58.59,1.42.74,2.46.74.22,0,1.52,0,1.8,0-.07.09-.13.26-.16.37h-1.65c-1.12,0-2-.16-2.63-.77-.21.39-.47.7-.76.92-.07-.08-.2-.22-.29-.27.32-.23.59-.55.8-.95-.22-.31-.4-.68-.55-1.16l.3-.12c.11.38.25.68.42.93.16-.41.29-.89.37-1.44h-.77c-.09.04-.22.12-.22.17-.02-.08-.11-.24-.16-.32.11-.02.25-.17.37-.35.11-.15.43-.66.67-1.2h-1.06v-.36h1.22l.13-.06.25.17c-.28.59-.59,1.15-.89,1.6h.65s.22.05.22.05ZM14.3,63.85h-1.13v-.32h1.13v-.52h.38v.52h1.34v.8h.43v.32h-.43v.82h-1.34v.49h1.49v.31h-1.49v.5h1.72v.32h-1.72v.63h-.38v-.63h-1.48v-.32h1.48v-.5h-1.23v-.31h1.23v-.49h-1.18v-.32h1.18v-.5h-1.54v-.32h1.54v-.48ZM14.68,63.85v.48h.98v-.48h-.98ZM15.66,64.65h-.98v.5h.98v-.5Z"/><path class="cls-1" d="M11.98,70.88c-.19.26-.4.5-.62.68-.05-.07-.19-.2-.28-.27.37-.28.72-.7.92-1.14l.36.1c-.05.1-.1.2-.16.3h1.57v.32h-1.79ZM13.99,73.9h2.47v.33h-2.47v1.43h-.38v-1.43h-2.45v-.33h2.45v-.37s-.09.04-.14.06c-.04-.07-.17-.2-.25-.25.41-.16.67-.34.82-.53-.21-.1-.42-.19-.61-.27l.16-.25c.19.07.39.16.59.25.04-.1.05-.2.05-.3v-.2h-.71v-.29h2.12v1.27c0,.11,0,.18.03.2.02.02.05.02.1.02h.17c.05,0,.1,0,.13-.02.03-.02.05-.05.07-.13.01-.07.02-.25.02-.47.07.07.19.12.28.15,0,.22-.03.47-.05.56-.04.08-.08.14-.16.18-.07.04-.17.05-.26.05h-.28c-.11,0-.23-.02-.31-.1-.08-.07-.11-.16-.11-.47v-.95h-.68v.21c0,.14-.02.29-.08.44.24.11.46.22.62.3l-.15.29c-.16-.09-.37-.2-.61-.32-.14.2-.36.39-.7.55h.34v.39ZM13.13,74.51c-.39.44-1.1.84-1.72,1.03-.05-.09-.17-.25-.26-.32.6-.15,1.29-.49,1.65-.85l.33.14ZM11.16,73.19c.26-.04.59-.07.94-.13v-.97h-.86v-.31h2.04v.31h-.82v.91c.28-.04.56-.08.84-.13l.02.32c-.75.13-1.54.24-2.1.34l-.06-.34ZM12.57,70.89c.18.17.41.41.52.55l-.28.22c-.11-.16-.33-.4-.52-.59l.27-.18ZM16.5,70.57v.32h-2.09c-.17.25-.37.48-.56.65-.06-.07-.21-.19-.31-.24.37-.28.67-.69.84-1.14l.37.1c-.04.11-.08.2-.14.31h1.89ZM14.69,74.34c.56.24,1.27.61,1.64.86l-.26.3c-.36-.27-1.07-.65-1.63-.91l.25-.26ZM15.41,71.64c-.11-.16-.32-.39-.5-.56l.27-.18c.18.15.41.38.52.52l-.28.22Z"/><path class="cls-1" d="M11.14,77.67h2.79v.35h-2.79v-.35ZM13.85,82.4c0,.18-.04.28-.17.34-.12.05-.32.06-.64.06-.01-.1-.06-.23-.1-.32.23,0,.43,0,.49,0,.07,0,.08-.02.08-.08v-2.14h-1.96v2.59h-.32v-2.91h2.62v2.46ZM13.64,79.59h-2.21v-1.2h2.21v1.2ZM12.7,81.51v1.19h-.31v-1.19h-.65v-.28h.85c.15-.25.32-.61.42-.87l.27.12c-.13.25-.27.53-.4.75h.44v.28h-.61ZM13.28,78.68h-1.5v.61h1.5v-.61ZM12.08,80.39c.15.23.3.53.35.71l-.25.1c-.05-.19-.2-.5-.35-.73l.24-.08ZM16.25,82.87c-.02-.14-.06-.31-.11-.5-.7.14-1.43.26-1.98.36l-.11-.37c.28-.04.63-.1,1.01-.16v-1.39h-.91v-2.22h.91v-1.16h.35v1.16h.88v2.22h-.88v1.33l.62-.1c-.08-.27-.19-.55-.29-.8l.29-.07c.24.51.46,1.19.52,1.6l-.31.1ZM14.47,80.46h.62v-1.52h-.62v1.52ZM15.98,78.95h-.59v1.52h.59v-1.52Z"/><path class="cls-1" d="M16.47,89.48v.35h-5.1v-4.99h4.99v.35h-4.6v4.29h4.71ZM12.06,86.45c.29.12.66.33.85.5l-.22.27c-.17-.17-.53-.4-.83-.53l.21-.23ZM13.07,87.82c-.22.43-.51.95-.76,1.35l-.28-.25c.23-.32.55-.86.8-1.34l.24.24ZM12.94,86.13c-.16-.17-.5-.4-.79-.53l.22-.24c.28.13.63.34.79.52l-.22.26ZM15.21,86.38v.54h.88v.3h-.88v.53h.88v.31h-.88v.58h1.06v.32h-2.35v.26h-.35v-2.43c-.14.2-.28.38-.43.53-.05-.07-.18-.22-.26-.28.45-.43.84-1.08,1.07-1.75l.34.09c-.08.22-.17.45-.28.66h.98c-.08-.18-.19-.4-.28-.56l.35-.11c.13.2.28.47.34.67h.89v.32h-1.07ZM14.84,86.38h-.93v.54h.93v-.54ZM14.84,87.22h-.93v.53h.93v-.53ZM14.84,88.06h-.93v.58h.93v-.58Z"/><path class="cls-1" d="M12.68,96.1c-.56.18-1.13.37-1.6.52l-.08-.37c.2-.05.44-.12.71-.2v-1.72h-.58v-.36h.58v-1.37h-.64v-.36h1.6v.36h-.61v1.37h.53v.36h-.53v1.61l.57-.17.05.35ZM16.38,95.82c-.26.17-.58.35-.86.49.28.28.64.49,1.06.6-.08.07-.2.21-.24.31-.83-.27-1.42-.91-1.72-1.71-.21.19-.47.38-.76.55v.73l1.03-.25c0,.1,0,.23,0,.3-1.15.31-1.31.35-1.41.42h0c-.02-.09-.1-.23-.15-.31.08-.04.19-.13.19-.37v-.35c-.23.11-.46.21-.67.28-.05-.08-.16-.21-.23-.28.53-.14,1.15-.43,1.57-.74h-.92v-1.22h2.8v1.22h-1.11c.09.22.22.43.37.61.27-.16.58-.37.78-.52l.28.24ZM16.45,93.92h-3.6v-.34h3.6v.34ZM16.25,93.27h-3.14v-1.25h3.14v1.25ZM14.05,92.32h-.61v.65h.61v-.65ZM13.63,95.18h2.05v-.61h-2.05v.61ZM14.97,92.32h-.62v.65h.62v-.65ZM15.9,92.32h-.64v.65h.64v-.65Z"/><path class="cls-1" d="M12.9,102.97c-.6.24-1.24.49-1.74.68l-.13-.4c.21-.07.47-.16.76-.26v-2.15h-.67v-.38h.67v-1.39h.38v1.39h.59v.38h-.59v2.01l.65-.24.07.36ZM15.8,104.07c.08,0,.19,0,.22-.02.05-.01.09-.06.11-.13.02-.08.02-.28.03-.52.08.07.22.14.32.17-.01.24-.04.49-.07.59-.04.09-.11.15-.22.19-.08.02-.25.04-.37.04h-.4c-.14,0-.31-.02-.4-.1-.1-.06-.14-.16-.14-.47v-.91h-.56c-.1.88-.41,1.32-1.49,1.58-.04-.1-.14-.25-.22-.31.99-.2,1.25-.55,1.33-1.27h-.64v-1.69h2.7v1.69h-.75v.95c0,.1.01.16.06.18.04.02.1.03.17.03h.31ZM16.32,100.89h-3.32v-.34h.87c-.04-.16-.12-.41-.2-.61l.33-.07c.08.19.19.44.22.6l-.28.08h1.07c.1-.2.2-.48.26-.67l.37.09c-.09.2-.19.41-.27.58h.94v.34ZM16.17,99.8h-2.99v-.34h1.31c-.05-.14-.11-.29-.17-.42l.37-.07c.07.14.16.34.21.49h1.27v.34ZM13.67,101.92h1.95v-.41h-1.95v.41ZM13.67,102.62h1.95v-.43h-1.95v.43Z"/><path class="cls-1" d="M13.18,108.27c.47-.2.73-.49.76-.92-.04.01-.08.01-.11.01-.23,0-.43-.13-.43-.41s.2-.41.43-.41c.32,0,.49.26.49.67,0,.64-.4,1.12-1.01,1.34l-.13-.29Z"/><path class="cls-1" d="M5.1,2.03c-.26.78-.61,1.46-1.05,2.03.23.61.52.97.84.97.17,0,.25-.31.29-1.11.09.09.24.18.34.21-.07,1-.22,1.3-.66,1.3-.46,0-.83-.38-1.11-1.01-.37.4-.8.74-1.28,1.03-.06-.08-.2-.25-.29-.32.55-.29,1.02-.67,1.42-1.13-.23-.69-.38-1.57-.45-2.55H1.01v.81h1.54v.18c-.03,1.35-.07,1.85-.19,2-.08.11-.18.15-.34.17-.16.01-.43.01-.73,0,0-.12-.05-.27-.11-.37.29.02.55.02.66.02.08,0,.14,0,.19-.06.08-.1.11-.49.14-1.57h-1.15v.11c0,.83-.09,2-.64,2.79-.07-.08-.23-.22-.33-.27.5-.73.56-1.76.56-2.52v-1.67h2.52c-.02-.34-.03-.68-.03-1.03h.41c0,.35,0,.7.02,1.03h1.94v.39h-1.91c.06.83.18,1.58.34,2.16.34-.49.61-1.04.81-1.67l.39.1ZM4.91,1.01c-.23-.21-.7-.52-1.08-.71l.23-.25c.38.19.85.48,1.09.69l-.25.27Z"/><path class="cls-1" d="M1.03,10.65c-.13.53-.36,1.07-.61,1.42-.07-.05-.21-.14-.29-.19.25-.34.45-.82.56-1.3l.34.07ZM2.87,8.31H.14v-.35h1.31c-.07-.21-.18-.47-.28-.68l.36-.08c.13.23.27.54.34.76h1v.35ZM1.74,10.23v1.99c0,.19-.04.28-.17.34-.13.05-.32.07-.63.06-.01-.1-.07-.23-.12-.33.22,0,.41,0,.47,0,.07,0,.08-.02.08-.08v-1.98H.48v-1.41h2.13v1.41h-.86ZM.83,9.9h1.41v-.76H.83v.76ZM2.45,11.7c-.07-.29-.25-.73-.43-1.06l.29-.13c.19.33.38.76.44,1.05l-.3.14ZM4.07,9.12c-.12,1.36-.44,2.73-1.36,3.55-.06-.08-.19-.17-.29-.23.88-.76,1.18-2.04,1.28-3.32h-.79v-.36h.81c.03-.53.03-1.06.04-1.54h.37c0,.49,0,1.01-.04,1.54h1.39v.36h-1.42ZM4.96,12.21c.08,0,.16,0,.19-.02.04-.02.07-.07.09-.17.02-.1.02-.34.03-.64.08.07.21.13.31.16,0,.27-.03.58-.06.7-.04.12-.1.19-.19.23-.08.05-.23.06-.34.06h-.38c-.13,0-.28-.02-.36-.09-.1-.07-.14-.17-.14-.53v-2.27h.35v2.31c0,.14.01.21.05.23.04.02.09.03.15.03h.28ZM5,8.54c-.11-.24-.36-.62-.61-.88l.28-.16c.25.26.5.62.62.86l-.29.18Z"/><path class="cls-1" d="M1.62,17.34c-.08.53-.22.98-.4,1.36.4.63,1.17.72,2.28.73.62,0,1.48-.03,2.07-.08-.06.09-.11.27-.14.38-.55.04-1.29.05-1.94.05-1.21,0-1.97-.12-2.44-.77-.22.37-.5.67-.8.88-.05-.09-.19-.23-.26-.28.59-.37,1.02-1.04,1.22-2.01h-.68c-.15,0-.31.04-.35.08-.02-.1-.11-.29-.15-.37.08-.02.18-.06.29-.17.14-.14.52-.65.79-1.02H.1v-.33h1.25l.07-.03.27.13c-.26.36-.73.98-1.07,1.39h.8s.2.07.2.07ZM1.08,15.55c-.16-.25-.49-.67-.75-.96l.29-.17c.28.29.6.67.76.92l-.31.22ZM2.72,15.25h-1.06v-.33h1.69c-.07-.14-.17-.29-.27-.42l.32-.13c.14.16.28.37.37.55h1.69v.33h-.97l.16.04c-.11.21-.23.43-.34.61h.94v2.64c0,.21-.04.31-.19.37-.15.06-.4.07-.76.07-.02-.1-.07-.25-.12-.35.28.01.52.01.59,0,.08,0,.1-.03.1-.1v-2.31h-1.09v.43h.93v.28h-.93v.44h.65v1.01h-1.3v.23h-.3v-1.24h.63v-.44h-.94v-.28h.94v-.43h-1.1v2.79h-.37v-3.11h.76c-.04-.17-.14-.41-.25-.59l.22-.06ZM3.92,15.9c.11-.18.24-.45.32-.65h-1.39c.12.18.22.42.26.58l-.23.07h1.04ZM4.12,17.64h-.99v.48h.99v-.48Z"/><path class="cls-1" d="M3.43,24.41v.74h1.52v1.91h-.4v-.2H1.95v.22h-.38v-1.92h1.46v-.74h-1.97c-.05.89-.22,1.92-.7,2.66-.07-.07-.25-.17-.34-.21.61-.94.67-2.25.67-3.2v-1.73h4.37v1.42h-1.63v.7h1.97v.37h-1.97ZM3.03,24.05v-.7h-1.95v.31c0,.13,0,.25,0,.38h1.95ZM1.08,22.29v.7h3.57v-.7H1.08ZM4.56,25.5H1.95v.99h2.6v-.99Z"/><path class="cls-1" d="M5.47,31.43v.35h-2.51c-.02.17-.05.34-.08.49h2.51v.35h-2.61c-.28.84-.92,1.36-2.5,1.62-.03-.1-.13-.27-.2-.35,1.42-.21,2-.61,2.27-1.27H.29v-.35h2.16c.04-.15.07-.31.08-.49H.16v-.35h2.43v-.55H.7v-.35h1.88v-.52H.38v-.37h1.28c-.1-.22-.3-.5-.48-.73l.35-.14c.22.23.43.55.53.77l-.21.1h1.62c.19-.25.41-.61.54-.87l.4.14c-.15.25-.33.52-.49.73h1.3v.37h-2.22v.52h1.93v.35h-1.93v.55h2.48ZM3,32.72c.83.32,1.91.85,2.46,1.23l-.19.34c-.53-.39-1.6-.94-2.45-1.28l.18-.29Z"/><path class="cls-1" d="M.7,37.88h-.4v-1.23h2.35c-.08-.18-.19-.39-.29-.56l.39-.12c.13.21.28.47.37.68h2.19v1.23h-.41v-.85H.7v.85ZM4.52,40.99c.34,0,.4-.14.43-.88.1.08.28.14.4.16-.07.87-.2,1.1-.82,1.1h-1.37c-.67,0-.86-.14-.86-.69v-1.16H.43v-.39h1.88v-.92c-.5.08-1.01.16-1.49.22-.02-.1-.07-.25-.13-.35,1.22-.14,2.63-.4,3.38-.7l.32.31c-.45.17-1.04.31-1.67.44v1.01h2.3v.39h-2.3v1.16c0,.25.08.3.46.3h1.34Z"/><path class="cls-1" d="M1.7,43.27c-.1.29-.21.63-.32.89h1.01v3.87H.71v.48h-.37v-4.35h.67c.1-.28.21-.69.26-.97l.43.08ZM2.03,44.52H.71v1.31h1.31v-1.31ZM2.03,47.67v-1.49H.71v1.49h1.31ZM5.33,44.36c-.1,2.75-.18,3.67-.42,3.96-.12.16-.26.21-.46.23-.2.02-.55,0-.88-.01-.01-.12-.06-.28-.13-.39.39.04.75.04.88.04.12,0,.19-.01.25-.09.2-.21.29-1.13.37-3.57h-1.57c-.17.41-.36.78-.56,1.07-.07-.06-.25-.17-.34-.22.41-.53.73-1.36.92-2.19l.38.08c-.08.3-.16.6-.26.89h1.82v.21ZM4.05,47.06c-.19-.37-.59-.96-.93-1.39l.31-.18c.35.43.77,1,.96,1.36l-.34.21Z"/><path class="cls-1" d="M5.28,50.68v5.2h-.4v-.28H.7v.28h-.38v-5.2h4.96ZM4.88,55.23v-4.19H.7v4.19h4.19ZM2.82,54.29c-.63.13-1.28.26-1.77.35l-.07-.31c.47-.08,1.14-.2,1.82-.33v.28ZM4.29,52.54c-.15.57-.38,1.07-.67,1.49.14.35.31.57.53.6.09.01.16-.24.19-.63.07.06.19.14.26.17-.08.64-.26.88-.56.77-.28-.05-.49-.28-.66-.62-.24.28-.52.52-.82.72-.05-.07-.17-.19-.24-.25.36-.21.67-.48.92-.81-.16-.49-.27-1.12-.34-1.81h-1.87v-.31h1.84c-.02-.22-.04-.44-.05-.67h.35c.01.22.02.45.04.67h1.34v.31h-1.31c.05.55.13,1.06.25,1.46.2-.34.37-.73.47-1.16l.32.07ZM2.6,52.58v1.16h-1.33v-1.16h1.33ZM2.3,52.83h-.74v.64h.74v-.64ZM4.2,51.77c-.14-.13-.42-.32-.66-.43l.19-.2c.23.1.52.26.66.41l-.19.22Z"/><path class="cls-1" d="M1.93,57.98c-.17.49-.39,1.07-.59,1.56.43.5.53.94.53,1.31,0,.31-.07.57-.22.68-.08.07-.19.1-.29.11-.12.01-.27.01-.4,0,0-.1-.04-.25-.11-.35.14.01.26.02.36,0,.07,0,.14-.02.19-.05.1-.07.13-.25.13-.43,0-.34-.11-.76-.55-1.24.18-.44.36-.96.49-1.37h-.83v4.84h-.35v-5.21h1.34l.05-.02.25.15ZM2.77,60.08c-.2.22-.43.41-.65.55-.05-.08-.14-.19-.22-.25.39-.23.76-.62,1.06-1.1-.14-.16-.35-.35-.56-.5-.14.2-.29.37-.44.52-.06-.05-.2-.16-.28-.21.41-.35.75-.89.94-1.48l.32.07c-.05.13-.1.26-.16.39h.73s.2.07.2.07c-.17.76-.5,1.39-.91,1.87h1.81v.34h-1.87v-.26ZM2.73,59.61c-.32.05-.61.1-.89.14l-.05-.29c.26-.02.56-.06.93-.11v.25ZM3.01,61.7c-.23.38-.58.82-.84,1.11-.08-.06-.23-.17-.32-.22.28-.27.59-.67.8-1.01l.36.12ZM3.9,61.26v1.8h-.37v-1.8h-1.35v-.34h3.06v.34h-1.34ZM2.65,58.36c-.03.06-.06.12-.1.17.19.14.4.31.55.47.1-.21.18-.42.24-.64h-.7ZM5.45,58.04c-.19.49-.5,1.02-.82,1.37.26.41.58.74.92.96-.08.06-.19.19-.24.28-.68-.47-1.24-1.4-1.54-2.4l.22-.06v-.26h1.16l.07-.02.23.14ZM4.09,58.22c.1.31.22.61.38.89.2-.25.39-.59.52-.89h-.89ZM4.67,61.54c.31.32.7.76.89,1.03l-.31.2c-.19-.26-.57-.72-.87-1.06l.29-.17Z"/><path class="cls-1" d="M5.46,69.69v.39H.14v-.39h2.45v-1.58H.79v-.38h1.8v-1.36h-1.44c-.19.39-.41.73-.64,1-.08-.07-.26-.19-.36-.24.5-.53.88-1.36,1.12-2.22l.4.08c-.1.34-.21.67-.34.98h1.27v-1.17h.41v1.17h2.17v.39h-2.17v1.36h1.95v.38h-1.95v1.58h2.45Z"/><path class="cls-1" d="M1.17,74.64c-.25-.17-.73-.45-1.1-.65l.22-.29c.35.18.85.44,1.11.61l-.23.32ZM.22,77.12c.32-.46.79-1.25,1.13-1.93l.29.26c-.32.63-.74,1.39-1.1,1.94l-.33-.27ZM1.48,73.02c-.25-.17-.74-.46-1.12-.66l.22-.28c.37.18.88.45,1.13.62l-.23.32ZM3.84,74.13v1.03h1.26v2.26h-.38v-.22h-2.19v.26h-.37v-2.3h1.3v-1.03h-1.75v-.38h1.75v-1.02c-.45.07-.91.13-1.34.17-.02-.1-.07-.25-.11-.34,1.04-.11,2.27-.29,2.93-.53l.32.31c-.39.13-.88.24-1.4.33v1.08h1.67v.38h-1.67ZM4.71,75.53h-2.19v1.31h2.19v-1.31Z"/><path class="cls-1" d="M4.81,79.54c0,2.22.01,4.71.38,4.71.08,0,.11-.4.13-.94.07.1.17.22.25.28-.04.78-.12,1.07-.41,1.08-.7,0-.69-2.12-.71-4.75H1.13v1.52c0,.97-.1,2.33-.78,3.23-.06-.07-.22-.18-.32-.23.65-.86.72-2.08.72-3v-1.9h4.05ZM3.72,83.06c.32.4.63.95.74,1.31l-.33.13c-.03-.14-.1-.3-.19-.47-1.02.08-2.07.14-2.79.2l-.03-.37c.38-.02.89-.05,1.44-.08v-.88h-1.06v-1.62h1.06v-.61h-1.15v-.34h2.7v.34h-1.19v.61h1.08v1.62h-1.08v.86l.85-.06c-.11-.18-.23-.37-.35-.52l.31-.11ZM2.56,82.58v-.97h-.73v.97h.73ZM2.92,81.6v.97h.74v-.97h-.74Z"/><path class="cls-1" d="M5.06,91.34c0,.25-.05.37-.23.44-.18.07-.5.07-.98.07-.02-.11-.08-.28-.14-.39.39.01.73.01.83,0,.1,0,.13-.04.13-.13v-2.81H.94v3.34h-.4v-3.71h2.03v-1.76h.41v1.76h2.07v3.18ZM1.37,87.96c-.14-.34-.49-.85-.8-1.21l.34-.16c.32.37.67.86.82,1.19l-.37.19ZM2.07,90.84v.38h-.37v-2.07h2.19v1.69h-1.82ZM2.07,89.51v.99h1.44v-.99h-1.44ZM5.02,86.71c-.26.43-.61.94-.89,1.26l-.33-.14c.28-.33.64-.88.83-1.27l.39.14Z"/><path class="cls-1" d="M3.72,94.84c0,.5-.41.91-.91.91s-.91-.41-.91-.91.41-.91.91-.91.91.41.91.91ZM3.43,94.84c0-.34-.27-.62-.62-.62s-.62.28-.62.62.28.62.62.62.62-.27.62-.62Z"/></g></svg>