<?xml version="1.0" encoding="UTF-8"?><svg id="_圖層_2" xmlns="http://www.w3.org/2000/svg" viewBox="0 0 194.71 221.84"><defs><style>.cls-1{fill:#bfdbd5;}.cls-2{fill:#add1cb;}.cls-3{fill:#e8f2f1;}.cls-4{fill:#47a99e;}.cls-5{fill:#85beb6;}.cls-6{fill:#64b1a7;}.cls-7{fill:#d0e4e0;}.cls-8{fill:#f8fbfb;}.cls-9{fill:#fff;}.cls-10{fill:#b6d6d0;}.cls-11{fill:#35a499;}.cls-12{fill:#56ada3;}.cls-13{fill:#d8e8e5;}.cls-14{fill:#13a094;}.cls-15{fill:#f0f6f5;}.cls-16{fill:#7cbab2;}.cls-17{fill:#a4cdc6;}.cls-18{fill:#9bc8c0;}.cls-19{fill:#e1eeeb;}.cls-20{fill:#90c3bb;}.cls-21{fill:#c8dfdb;}.cls-22{fill:#71b6ac;}</style></defs><g id="_圖層_1-2"><path class="cls-9" d="M20.46,221.41v.23h-5.16v-.23c.4-.51.57-1.06.5-1.64-.07-.58-.35-1.53-.84-2.85l-1.64-4.25H5.03l-.9,2.54c-.56,1.61-.84,2.86-.84,3.77s.33,1.71,1,2.43v.23H.34v-.23c1.41-1.47,2.58-3.54,3.52-6.19l5.02-14.13-1.1-2.88h2.65l6.53,17.01c1.07,2.63,2.24,4.7,3.52,6.19ZM5.13,212.4h8.1l-4.22-10.95-3.88,10.95Z"/><path class="cls-9" d="M50.1,198.2h4.15v.27c-.94.49-1.41,1.74-1.41,3.75v11.55c0,2.34-.75,4.28-2.26,5.79-1.51,1.52-3.43,2.28-5.78,2.28-2.66,0-4.85-.75-6.58-2.26-1.73-1.51-2.59-3.71-2.59-6.61v-12.52c0-1.03-.26-1.69-.77-1.98v-.27h4.15v.27c-.49.29-.74.95-.74,1.98v12.52c0,2.79.68,4.95,2.04,6.48,1.36,1.53,3.25,2.19,5.66,1.99,1.99-.16,3.59-.98,4.81-2.48,1.22-1.5,1.82-3.23,1.82-5.19v-11.18c0-1-.22-1.91-.67-2.73-.45-.82-1.06-1.28-1.84-1.39v-.27Z"/><path class="cls-9" d="M83.85,215.65c1.45,2.54,2.9,4.47,4.35,5.76v.23h-5.16v-.23c.22-.22.36-.45.4-.69s-.02-.57-.18-1c-.17-.43-.33-.81-.49-1.12-.16-.31-.45-.84-.87-1.57l-3.58-6.26c-.67.04-1.17.07-1.51.07h-3.11v8.61c0,1.03.25,1.69.74,1.98v.23h-4.12v-.23c.49-.29.74-.95.74-1.98v-18.99c0-1.03-.25-1.69-.74-1.98v-.27h6.5c1.81,0,3.43.22,4.87.65,1.44.44,2.63,1.14,3.58,2.11s1.42,2.16,1.42,3.57c0,1.5-.54,2.74-1.61,3.73-1.07.99-2.49,1.69-4.25,2.09l3.01,5.29ZM76.82,210.56c4.82,0,7.23-2.01,7.23-6.03,0-.76-.08-1.45-.25-2.08-.17-.62-.49-1.26-.96-1.91-.47-.65-1.22-1.15-2.24-1.52-1.03-.37-2.29-.55-3.78-.55h-3.11v12.09h3.11Z"/><path class="cls-9" d="M105.85,201.39c2.39-2.34,5.25-3.52,8.57-3.52s6.18,1.17,8.57,3.52c2.39,2.34,3.58,5.17,3.58,8.47s-1.2,6.1-3.58,8.45c-2.39,2.36-5.25,3.53-8.57,3.53s-6.18-1.18-8.57-3.53c-2.39-2.35-3.58-5.17-3.58-8.45s1.19-6.13,3.58-8.47ZM117.84,221.04c1.36-.42,2.52-1.11,3.46-2.06.95-.95,1.64-2.05,2.08-3.31.44-1.26.65-2.63.65-4.1s-.22-2.96-.67-4.45c-.94-3.08-2.56-5.46-4.86-7.15-2.3-1.68-4.8-2.11-7.5-1.29-1.36.42-2.52,1.11-3.47,2.06-.95.95-1.64,2.05-2.08,3.32-.44,1.26-.65,2.63-.65,4.1s.22,2.95.67,4.42c.94,3.1,2.55,5.5,4.86,7.18,2.3,1.69,4.8,2.11,7.5,1.29Z"/><path class="cls-9" d="M155.84,215.65c1.45,2.54,2.9,4.47,4.35,5.76v.23h-5.16v-.23c.22-.22.36-.45.4-.69s-.02-.57-.18-1c-.17-.43-.33-.81-.48-1.12-.16-.31-.45-.84-.87-1.57l-3.58-6.26c-.67.04-1.17.07-1.51.07h-3.11v8.61c0,1.03.24,1.69.74,1.98v.23h-4.12v-.23c.49-.29.74-.95.74-1.98v-18.99c0-1.03-.25-1.69-.74-1.98v-.27h6.5c1.81,0,3.43.22,4.87.65,1.44.44,2.63,1.14,3.58,2.11s1.42,2.16,1.42,3.57c0,1.5-.54,2.74-1.61,3.73-1.07.99-2.49,1.69-4.25,2.09l3.01,5.29ZM148.81,210.56c4.82,0,7.23-2.01,7.23-6.03,0-.76-.08-1.45-.25-2.08-.17-.62-.49-1.26-.96-1.91-.47-.65-1.22-1.15-2.24-1.52-1.03-.37-2.29-.55-3.78-.55h-3.11v12.09h3.11Z"/><path class="cls-9" d="M194.38,221.41v.23h-5.16v-.23c.4-.51.57-1.06.5-1.64-.07-.58-.35-1.53-.84-2.85l-1.64-4.25h-8.3l-.9,2.54c-.56,1.61-.84,2.86-.84,3.77s.34,1.71,1.01,2.43v.23h-3.95v-.23c1.41-1.47,2.58-3.54,3.52-6.19l5.02-14.13-1.1-2.88h2.64l6.53,17.01c1.07,2.63,2.24,4.7,3.52,6.19ZM179.05,212.4h8.1l-4.22-10.95-3.88,10.95Z"/><polygon class="cls-14" points="97.34 23.48 97.56 34.43 97.69 45.38 97.8 67.29 97.69 89.19 97.57 100.15 97.34 111.1 97.12 100.15 96.99 89.19 96.89 67.29 96.99 45.38 97.12 34.43 97.34 23.48"/><path class="cls-11" d="M95.82,34.92l.12,10.64.1,21.27-.1,21.27-.12,10.64c0,.21-.22,10.84-.23,11.05,0-.21-.22-10.84-.23-11.05l-.12-10.64-.1-21.27.1-21.27.12-10.64c0-.21.22-10.84.23-11.05,0,.21.22,10.84.23,11.05Z"/><path class="cls-4" d="M94.08,35.41l.12,10.32.1,20.64-.1,20.64-.12,10.32c0,.41-.22,10.73-.23,11.15-.02-.41-.23-10.73-.23-11.15l-.12-10.32-.1-20.64.1-20.64.12-10.32c0-.41.22-10.73.23-11.15.02.41.23,10.73.23,11.15Z"/><path class="cls-12" d="M92.34,35.91l.11,10.01.1,20.01-.1,20.01-.11,10.01c-.01.62-.21,10.62-.24,11.24-.03-.62-.23-10.62-.24-11.24l-.11-10.01-.1-20.01.1-20.01.11-10.01c.01-.62.21-10.62.24-11.24.03.62.23,10.62.24,11.24Z"/><path class="cls-6" d="M90.6,36.4l.11,9.69.1,19.38-.1,19.38-.11,9.69c-.01.82-.21,10.52-.25,11.34-.04-.82-.23-10.52-.25-11.34l-.11-9.69-.1-19.38.1-19.38.11-9.69c.01-.82.21-10.52.25-11.34.04.82.23,10.52.25,11.34Z"/><path class="cls-22" d="M88.86,36.89l.1,9.37.1,18.75-.1,18.75-.11,9.37c-.02,1.03-.21,10.41-.25,11.44-.04-1.03-.24-10.41-.25-11.44l-.11-9.37-.1-18.75.1-18.75.11-9.37c.02-1.03.21-10.41.25-11.44.04,1.03.23,10.41.25,11.44Z"/><path class="cls-16" d="M87.12,37.38l.1,9.06.1,18.12-.09,18.12-.1,9.06c-.02,1.24-.2,10.3-.26,11.53-.05-1.24-.24-10.3-.26-11.53l-.1-9.06-.09-18.12.1-18.12.1-9.06c.02-1.24.2-10.3.26-11.53.05,1.24.24,10.3.26,11.53Z"/><path class="cls-5" d="M85.37,37.87l.1,8.74.09,17.49-.09,17.49-.1,8.74c-.02,1.44-.2,10.19-.26,11.63-.06-1.44-.24-10.19-.26-11.63l-.1-8.74-.09-17.49.09-17.49.1-8.74c.02-1.44.2-10.19.26-11.63.06,1.44.24,10.19.26,11.63Z"/><path class="cls-20" d="M83.63,38.37l.09,8.43.09,16.86-.09,16.86-.09,8.43c-.03,1.65-.2,10.08-.27,11.73-.07-1.65-.24-10.08-.27-11.73l-.09-8.43-.09-16.86.09-16.86.09-8.43c.03-1.65.2-10.08.27-11.73.07,1.65.24,10.08.27,11.73Z"/><path class="cls-18" d="M81.89,38.86l.09,8.11.09,16.23-.09,16.23-.09,8.11c-.03,1.85-.2,9.97-.28,11.82-.08-1.85-.25-9.97-.28-11.82l-.09-8.11-.09-16.23.09-16.23.09-8.11c.03-1.85.2-9.97.28-11.82.08,1.85.24,9.97.28,11.82Z"/><path class="cls-17" d="M80.15,39.35l.08,7.79.09,15.6-.09,15.6-.08,7.79c-.03,2.06-.19,9.86-.28,11.92-.09-2.06-.25-9.86-.28-11.92l-.08-7.79-.09-15.6.09-15.6.08-7.79c.03-2.06.19-9.86.28-11.92.09,2.06.25,9.86.28,11.92Z"/><path class="cls-2" d="M78.41,39.84l.08,7.48.09,14.97-.09,14.97-.08,7.48c-.04,2.27-.19,9.75-.29,12.02-.1-2.27-.25-9.75-.29-12.02l-.08-7.48-.09-14.97.09-14.97.08-7.48c.04-2.27.19-9.75.29-12.02.1,2.27.25,9.75.29,12.02Z"/><path class="cls-10" d="M76.67,40.33l.07,7.16.09,14.34-.08,14.34-.07,7.16c-.04,2.47-.19,9.64-.3,12.11-.11-2.47-.25-9.64-.3-12.11l-.07-7.16-.08-14.34.09-14.34.07-7.16c.04-2.47.19-9.64.29-12.11.11,2.47.25,9.64.29,12.11Z"/><path class="cls-1" d="M74.93,40.82l.07,6.85.08,13.71-.08,13.71-.07,6.85c-.05,2.68-.18,9.53-.3,12.21-.12-2.68-.26-9.53-.3-12.21l-.07-6.85-.08-13.71.08-13.71.07-6.85c.04-2.68.18-9.53.3-12.21.12,2.68.25,9.53.3,12.21Z"/><path class="cls-21" d="M73.18,41.32l.07,6.53.08,13.08-.08,13.08-.07,6.53c-.05,2.89-.18,9.42-.31,12.31-.13-2.89-.26-9.42-.31-12.31l-.07-6.53-.08-13.08.08-13.08.07-6.53c.05-2.89.18-9.42.31-12.31.12,2.89.26,9.42.31,12.31Z"/><path class="cls-7" d="M71.44,41.81l.06,6.22.08,12.45-.08,12.45-.06,6.22c-.05,3.09-.18,9.31-.31,12.4-.13-3.09-.26-9.31-.31-12.4l-.06-6.22-.08-12.45.08-12.45.06-6.22c.05-3.09.18-9.31.31-12.4.13,3.09.26,9.31.31,12.4Z"/><path class="cls-13" d="M69.7,42.3l.06,5.9.08,11.82-.08,11.82-.06,5.9c-.06,3.3-.18,9.2-.32,12.5-.14-3.3-.26-9.2-.32-12.5l-.06-5.9-.08-11.82.08-11.82.06-5.9c.06-3.3.17-9.2.32-12.5.14,3.3.26,9.2.32,12.5Z"/><path class="cls-19" d="M67.96,42.79l.05,5.58.08,11.19-.08,11.19-.05,5.58c-.06,3.5-.17,9.09-.33,12.6-.15-3.5-.27-9.09-.33-12.6l-.05-5.58-.08-11.19.08-11.19.05-5.58c.06-3.5.17-9.09.32-12.6.15,3.5.27,9.09.32,12.6Z"/><path class="cls-3" d="M66.22,43.28l.05,5.27.08,10.55-.07,10.56-.05,5.27c-.06,3.71-.17,8.98-.33,12.69-.16-3.71-.27-8.98-.33-12.69l-.05-5.27-.07-10.56.08-10.55.05-5.27c.06-3.71.17-8.98.33-12.69.16,3.71.27,8.98.33,12.69Z"/><path class="cls-15" d="M64.48,43.77l.04,4.95.07,9.92-.07,9.92-.04,4.95c-.07,3.92-.17,8.88-.34,12.79-.17-3.92-.27-8.88-.34-12.79l-.04-4.95-.07-9.92.07-9.92.04-4.95c.07-3.92.17-8.88.34-12.79.17,3.92.27,8.88.34,12.79Z"/><path class="cls-8" d="M62.74,44.27l.04,4.64.07,9.29-.07,9.29-.04,4.64c-.07,4.12-.16,8.77-.34,12.89-.18-4.12-.27-8.77-.34-12.89l-.04-4.64-.07-9.29.07-9.29.04-4.64c.07-4.12.16-8.77.34-12.89.18,4.12.27,8.77.34,12.89Z"/><path class="cls-9" d="M60.65,31.77c.19,4.33.28,8.66.35,12.98l.11,12.98-.1,12.98c-.07,4.33-.16,8.66-.35,12.98-.19-4.33-.28-8.66-.35-12.98l-.1-12.98.11-12.98c.07-4.33.16-8.66.35-12.98Z"/><polygon class="cls-14" points="134.04 15.88 134.26 25.28 134.39 34.69 134.49 53.49 134.39 72.3 134.26 81.7 134.04 91.1 133.82 81.7 133.69 72.3 133.58 53.49 133.69 34.69 133.82 25.28 134.04 15.88"/><polygon class="cls-11" points="132.29 15.13 132.51 24.74 132.64 34.36 132.75 53.59 132.64 72.82 132.51 82.44 132.29 92.05 132.07 82.44 131.94 72.82 131.84 53.59 131.94 34.36 132.07 24.74 132.29 15.13"/><polygon class="cls-4" points="130.54 14.37 130.77 24.2 130.89 34.03 131 53.69 130.89 73.35 130.77 83.18 130.54 93.01 130.32 83.18 130.19 73.35 130.09 53.69 130.2 34.03 130.32 24.2 130.54 14.37"/><polygon class="cls-12" points="128.8 13.61 129.02 23.66 129.14 33.7 129.25 53.79 129.15 73.87 129.02 83.92 128.8 93.96 128.57 83.92 128.45 73.87 128.34 53.79 128.45 33.7 128.58 23.66 128.8 13.61"/><polygon class="cls-6" points="127.05 12.86 127.27 23.11 127.4 33.37 127.5 53.88 127.4 74.4 127.27 84.65 127.05 94.91 126.83 84.65 126.7 74.4 126.6 53.88 126.7 33.37 126.83 23.11 127.05 12.86"/><polygon class="cls-22" points="125.3 12.1 125.52 22.57 125.65 33.04 125.76 53.98 125.65 74.92 125.52 85.39 125.3 95.86 125.08 85.39 124.95 74.92 124.85 53.98 124.95 33.04 125.08 22.57 125.3 12.1"/><polygon class="cls-16" points="123.55 11.34 123.78 22.03 123.9 32.71 124.01 54.08 123.9 75.45 123.78 86.13 123.55 96.82 123.33 86.13 123.2 75.45 123.1 54.08 123.21 32.71 123.33 22.03 123.55 11.34"/><polygon class="cls-5" points="121.81 10.59 122.03 21.49 122.15 32.38 122.26 54.18 122.16 75.97 122.03 86.87 121.81 97.77 121.58 86.87 121.46 75.97 121.35 54.18 121.46 32.38 121.59 21.49 121.81 10.59"/><polygon class="cls-20" points="120.06 9.83 120.28 20.94 120.41 32.05 120.51 54.28 120.41 76.5 120.28 87.61 120.06 98.72 119.84 87.61 119.71 76.5 119.61 54.28 119.71 32.05 119.84 20.94 120.06 9.83"/><polygon class="cls-18" points="118.31 9.08 118.53 20.4 118.66 31.72 118.77 54.37 118.66 77.02 118.53 88.35 118.31 99.67 118.09 88.35 117.96 77.02 117.86 54.37 117.96 31.72 118.09 20.4 118.31 9.08"/><polygon class="cls-17" points="116.56 8.32 116.79 19.86 116.91 31.4 117.02 54.47 116.91 77.55 116.79 89.09 116.56 100.62 116.34 89.09 116.21 77.55 116.11 54.47 116.22 31.4 116.34 19.86 116.56 8.32"/><polygon class="cls-2" points="114.82 7.56 115.04 19.31 115.17 31.07 115.27 54.57 115.17 78.07 115.04 89.82 114.82 101.58 114.59 89.82 114.47 78.07 114.36 54.57 114.47 31.07 114.6 19.31 114.82 7.56"/><polygon class="cls-10" points="113.07 6.81 113.29 18.77 113.42 30.74 113.52 54.67 113.42 78.6 113.29 90.56 113.07 102.53 112.85 90.56 112.72 78.6 112.62 54.67 112.72 30.74 112.85 18.77 113.07 6.81"/><polygon class="cls-1" points="111.32 6.05 111.54 18.23 111.67 30.41 111.78 54.77 111.67 79.12 111.54 91.3 111.32 103.48 111.1 91.3 110.97 79.12 110.87 54.77 110.97 30.41 111.1 18.23 111.32 6.05"/><polygon class="cls-21" points="109.57 5.29 109.8 17.69 109.92 30.08 110.03 54.86 109.92 79.65 109.8 92.04 109.57 104.43 109.35 92.04 109.22 79.65 109.12 54.86 109.23 30.08 109.35 17.69 109.57 5.29"/><polygon class="cls-7" points="107.83 4.54 108.05 17.14 108.18 29.75 108.28 54.96 108.18 80.17 108.05 92.78 107.83 105.39 107.6 92.78 107.48 80.17 107.37 54.96 107.48 29.75 107.61 17.14 107.83 4.54"/><polygon class="cls-13" points="106.08 3.78 106.3 16.6 106.43 29.42 106.53 55.06 106.43 80.7 106.3 93.52 106.08 106.34 105.86 93.52 105.73 80.7 105.63 55.06 105.73 29.42 105.86 16.6 106.08 3.78"/><polygon class="cls-19" points="104.33 3.03 104.55 16.06 104.68 29.09 104.79 55.16 104.68 81.22 104.55 94.26 104.33 107.29 104.11 94.26 103.98 81.22 103.88 55.16 103.98 29.09 104.11 16.06 104.33 3.03"/><polygon class="cls-3" points="102.59 2.27 102.81 15.52 102.93 28.76 103.04 55.26 102.93 81.75 102.81 95 102.59 108.24 102.36 95 102.24 81.75 102.13 55.26 102.24 28.76 102.36 15.52 102.59 2.27"/><polygon class="cls-15" points="100.84 1.51 101.06 14.97 101.19 28.43 101.29 55.35 101.19 82.27 101.06 95.73 100.84 109.19 100.62 95.73 100.49 82.27 100.38 55.35 100.49 28.43 100.62 14.97 100.84 1.51"/><polygon class="cls-8" points="99.09 .76 99.31 14.43 99.44 28.1 99.54 55.45 99.44 82.8 99.31 96.47 99.09 110.15 98.87 96.47 98.74 82.8 98.64 55.45 98.74 28.1 98.87 14.43 99.09 .76"/><polygon class="cls-9" points="97.34 0 97.56 13.89 97.69 27.77 97.8 55.55 97.69 83.32 97.57 97.21 97.34 111.1 97.12 97.21 96.99 83.32 96.89 55.55 96.99 27.77 97.12 13.89 97.34 0"/><path class="cls-9" d="M0,136.95l6.69,1.22s-1.72.41-1.72,1.83v21.94c0,2.74-2.22,4.97-4.97,4.97h0v-29.95Z"/><path class="cls-9" d="M21.45,124.9l6.69,1.22s-1.72.41-1.72,1.83v52.12c0,2.74-2.22,4.97-4.97,4.97h0v-60.13Z"/><path class="cls-9" d="M42.91,136.95l6.69,1.22s-1.72.41-1.72,1.83v21.94c0,2.74-2.22,4.97-4.97,4.97h0v-29.95Z"/><rect class="cls-9" x="3.35" y="137.95" width="43.78" height="3.04"/><rect class="cls-9" x="3.35" y="159.54" width="43.78" height="3.04"/><path class="cls-9" d="M156.76,147l5.26.96s-1.35.32-1.35,1.43v16.46c0,2.16-1.75,3.9-3.9,3.9h0v-22.76Z"/><path class="cls-9" d="M164.83,147l5.26.96s-1.35.32-1.35,1.43v16.46c0,2.16-1.75,3.9-3.9,3.9h0v-22.76Z"/><path class="cls-9" d="M145.09,125.94l6.69,1.22s-1.72.41-1.72,1.83l.17,49.65c.02,2.81-2.25,5.11-5.06,5.11h-.08v-57.79Z"/><rect class="cls-9" x="158.97" y="147.89" width="9.37" height="3.04"/><rect class="cls-9" x="158.97" y="162.89" width="9.37" height="3.04"/><rect class="cls-9" x="154.71" y="128.54" width="38.52" height="3.04"/><rect class="cls-9" x="152.16" y="178.28" width="42.55" height="3.04"/><rect class="cls-9" x="137.61" y="139.47" width="19.64" height="3.04"/><rect class="cls-9" x="164.83" y="138.35" width="12.04" height="3.04"/><rect class="cls-9" x="178.64" y="144.15" width="12.04" height="3.04"/><path class="cls-9" d="M166.84,128.54l5.54,2.58s-.95.14-1.54.95c-.6.81-2.41,7.99-8.49,12.28,0,0,3.83-10.28,4.49-15.81Z"/><path class="cls-9" d="M187.07,144.15h6.62s-.99.29-1.12,1.83c-.09,1.19.12,21.07-17.57,29.07,0,0,15.02-13.62,12.07-30.9Z"/><path class="cls-9" d="M145.09,140.18s-1.65,18.45-9.42,28.98c0,0,8.67-3.88,12.02-24.01v-5.28l-2.59.31Z"/><path class="cls-9" d="M173.39,137.56v21.93c0,7.49-2.84,14.96-7.73,17.49,0,0,12.2-1.11,12.2-17.39v-19.23c0-1.91.78-2.79.78-2.79h-5.25Z"/><path class="cls-9" d="M147.89,145.69s8.6,4.24,7.71,10.02c-.53,2-3.01,2.3-4.17-2.13-1.15-4.43-3.55-7.89-3.55-7.89Z"/><path class="cls-9" d="M179,151.83s13.42,10.82,12.34,19.16c-.53,2-3.3,2.36-4.17-2.13-1.67-8.65-8.18-17.03-8.18-17.03Z"/><path class="cls-9" d="M90.59,125.94l6.69,1.22s-1.72.41-1.72,1.83l.21,23.28s-2.44.05-5.18.05v-26.36Z"/><rect class="cls-9" x="65.32" y="149.88" width="55.03" height="3.04"/><path class="cls-9" d="M106.22,130.72l6.62,3.08s-1.13.17-1.84,1.13c-.71.96-4.79,8.16-12.06,13.29,0,0,6.49-10.9,7.28-17.5Z"/><path class="cls-9" d="M74.2,131.58s11.62,5.73,10.42,13.54c-.72,2.7-4.07,3.1-5.63-2.88-1.56-5.98-4.79-10.65-4.79-10.65Z"/><path class="cls-9" d="M83.63,152.3s1.78,21.59-18.31,31.43c0,0,21.88-2.52,23.57-26.86.13-2.63-.01-3.34,1.7-3.95,1.71-.61-2.47-1.05-2.47-1.05l-4.49.43Z"/><path class="cls-9" d="M96.95,152.3v22.3c0,2.8-1.07,7.94,5.33,7.94s15.19.2,18.07-1.73c2.87-1.93-1.19-4.17-1.86-4.93-1.4-1.6-.82-3.85-.82-3.85,0,0-.65.92-1.32,3.45-.41,1.55-.27,2.87-5.93,2.87s-8.74.47-8.74-2.93v-18.6c0-2.07.07-3.88,1.13-3.88s1-1.52,1-1.52l-6.87.9Z"/></g></svg>